<svg xmlns="http://www.w3.org/2000/svg" viewBox="0 0 512 512" role="img" aria-labelledby="title desc">
  <title id="title">Appnary mark</title>
  <desc id="desc">A rounded app-cell logo mark with a custom lowercase a monogram.</desc>
  <rect x="40" y="40" width="432" height="432" rx="112" fill="#F6FBF9"/>
  <path
    fill="#111827"
    fill-rule="evenodd"
    d="M253 122c-89.9 0-162 72.6-162 163s72.1 163 162 163c40.9 0 77.7-14.8 105.8-39.5v10.9c0 10.8 8.8 19.6 19.6 19.6H421c10.8 0 19.6-8.8 19.6-19.6V160.6c0-10.8-8.8-19.6-19.6-19.6h-42.6c-10.8 0-19.6 8.8-19.6 19.6v10.9C330.7 146.8 293.9 122 253 122Zm11 82c-46.8 0-84 36.3-84 81s37.2 81 84 81 84-36.3 84-81-37.2-81-84-81Z"/>
  <path
    d="M367 109h56v56"
    fill="none"
    stroke="#37D7C6"
    stroke-width="30"
    stroke-linecap="round"
    stroke-linejoin="round"/>
  <circle cx="404" cy="127" r="17" fill="#B7F34B"/>
</svg>
